<svg width="639" height="262" viewBox="0 0 639 262" fill="none" xmlns="http://www.w3.org/2000/svg">
<path d="M565.753 70.6482H591.135L638.662 189.722H612.258L602.037 163.829H554.85L544.63 189.722H518.055L565.753 70.6482ZM595.223 143.217L578.359 97.904L561.494 143.217H595.223Z" fill="white"/>
<path d="M409.424 70.6482H437.021L469.728 155.311L502.605 70.6482H530.031L482.504 189.722H457.122L409.424 70.6482Z" fill="white"/>
<path d="M359.863 192.277C347.143 192.277 335.9 189.779 326.133 184.782C316.367 179.671 308.815 172.46 303.477 163.148C298.139 153.835 295.471 142.876 295.471 130.27C295.471 117.664 298.139 106.705 303.477 97.393C308.815 87.967 316.367 80.7556 326.133 75.7587C335.9 70.6482 347.143 68.093 359.863 68.093C368.494 68.093 376.102 69.0015 382.689 70.8186C389.39 72.5221 395.522 75.2477 401.087 78.9953V103.696C396.09 99.6075 390.355 96.6548 383.882 94.8378C377.522 92.9071 370.254 91.9418 362.077 91.9418C354.468 91.9418 347.597 93.5318 341.465 96.7116C335.446 99.7779 330.676 104.207 327.156 109.999C323.635 115.791 321.875 122.548 321.875 130.27C321.875 138.106 323.465 144.977 326.645 150.882C329.938 156.674 334.537 161.16 340.443 164.34C346.348 167.52 353.162 169.11 360.885 169.11C367.926 169.11 374.058 167.861 379.282 165.362V142.365H360.033V123.286H404.323V180.693C393.08 188.416 378.26 192.277 359.863 192.277Z" fill="white"/>
<path d="M274.338 151.977L268.99 153.98C268.855 154.023 265.23 155.328 259.525 157.147C264.027 130.426 257.385 107.707 257.044 106.17L255.449 100.694L244.538 104.021L246.134 109.497C246.264 109.905 253.203 134.026 247.169 160.636C240.791 162.22 233.603 163.613 226.514 164.376C237.484 142.926 239.61 118.609 232.566 95.5685C225.349 71.9851 209.507 52.7964 187.702 41.1935C167.46 30.7383 144.82 27.7804 122.881 33.1271L122.837 32.9912L117.404 34.7231C116.996 34.8529 116.724 34.9395 116.317 35.0694C93.2239 42.4297 74.3031 58.1852 63.0176 79.5865C62.2772 81.0195 61.5368 82.4524 60.8396 84.0211C49.7021 90.8625 39.399 99.3829 36.4194 106.467C34.8833 110.098 35.4774 112.901 36.3119 114.58C37.7583 117.71 40.5139 120.722 52.253 119.524C52.0947 124.661 52.3872 129.805 52.9514 134.862C41.1273 139.079 29.0329 146.674 27.0907 153.727C26.5608 156.289 27.2907 159.049 29.2059 160.833C33.302 164.764 41.0897 165.723 60.1941 159.933C63.7856 167.915 68.4205 175.415 73.969 182.025C62.7643 190.533 62.7971 194.862 64.0584 198.35C64.757 200.072 66.2587 202.436 69.8906 203.972C76.4378 206.673 88.3067 205.882 100.2 203.289C100.558 203.474 100.737 203.566 101.095 203.751C122.856 215.218 147.714 217.619 171.165 210.444L176.599 208.712L176.555 208.577C193.683 202.22 208.216 191.005 218.825 176.402C226.809 176.102 235.257 174.906 242.945 173.203C240.058 180.108 236.269 187.001 230.819 193.376L227.109 197.701L235.894 205.075L239.604 200.75C247.85 190.941 252.995 180.324 256.245 169.862C259.141 169.089 261.586 168.309 263.896 167.573C269.058 165.928 272.41 164.71 272.818 164.58L278.165 162.576L274.338 151.977ZM228.312 96.7748C234.707 117.778 232.426 140.199 221.751 159.76C211.353 178.784 194.303 192.896 173.47 199.835L169.216 201.041C168.944 201.128 168.672 201.214 168.401 201.301C163.996 196.87 155.226 181.561 145.723 156.911C149.804 155.161 154.065 153.504 158.232 152.026L163.579 150.023L159.573 139.33L154.226 141.334C150.101 142.948 145.977 144.562 141.717 146.219C139.936 141.101 138.068 135.711 136.25 130.007C147.679 125.018 160.379 119.324 174.352 112.926L179.569 110.515L174.791 100.218L169.573 102.629C156.009 108.897 143.808 114.282 132.787 119.141C130.456 111.356 128.569 104.028 126.991 97.1995C131.616 95.2767 136.104 93.3972 140.278 91.4685L145.495 89.0576L140.853 78.7175L135.636 81.1284C131.962 82.7481 128.153 84.4112 124.436 85.8951C120.072 64.6935 119.004 50.0725 119.804 44.132C120.755 43.8289 121.706 43.5259 122.657 43.2228L123.879 42.8331C145.293 36.3074 167.945 38.3638 187.514 48.5847C207.447 58.54 221.917 75.772 228.312 96.7748ZM83.9609 84.7312C83.3519 89.8627 83.101 95.1792 83.1652 100.545C76.8732 102.401 70.9454 103.991 65.7894 105.185C66.8434 100.51 68.2123 95.8849 70.0753 91.4011C74.5267 88.935 79.2931 86.5182 83.9609 84.7312ZM109.395 50.4419C109.107 55.1719 109.48 61.0376 110.243 68.1257C111.011 74.7631 112.311 82.1288 113.921 89.9945C107.258 92.5667 100.645 94.824 94.44 96.9515C94.6596 76.9824 99.9814 59.8757 109.395 50.4419ZM95.0937 108.862C102.157 106.611 109.406 104.001 116.612 101.256C118.319 108.492 120.25 115.956 122.538 123.605C114.104 127.191 106.621 130.473 99.5941 133.311C97.2685 125.076 95.7086 116.895 95.0937 108.862ZM125.908 134.65C127.683 140.218 129.551 145.608 131.331 150.726C124.256 153.878 117.223 157.167 110.506 160.505C107.688 155.419 105.19 149.931 103.057 144.177C110.084 141.339 117.61 138.192 125.908 134.65ZM135.338 161.418C139.091 170.845 142.899 179.506 146.589 186.858C149.71 192.895 152.621 197.802 155.321 201.58C147.409 199.762 138.953 194.827 130.934 187.508C125.677 182.75 120.703 177.005 116.328 170.32C122.409 167.334 128.806 164.398 135.338 161.418ZM115.199 187.437C111.074 189.05 106.684 190.3 102.387 191.37C98.6741 189.113 95.3258 186.589 92.0702 183.886C96.2066 181.371 101.022 178.639 106.245 175.777C109.032 179.826 112.091 183.789 115.199 187.437ZM123.83 196.206C126.548 198.631 129.359 200.877 132.176 202.673C127.229 201.706 122.331 200.424 117.575 198.648C119.705 197.82 121.836 196.991 123.83 196.206ZM89.2992 62.9811C88.1334 65.8962 87.1466 68.9038 86.339 72.0039L86.1659 71.4606L80.8188 73.4641C80.4113 73.594 80.1396 73.6806 79.7754 73.9463C82.7131 70.0176 85.9166 66.4531 89.2992 62.9811ZM48.345 108.202C49.6288 106.596 51.8202 104.551 54.5117 102.197C54.037 103.994 53.7414 105.883 53.4025 107.637C51.4142 107.972 49.8333 108.176 48.345 108.202ZM77.3045 114.083C79.5212 113.526 81.6947 112.833 83.9114 112.276C84.7921 120.674 86.4818 129.262 89.0299 137.726C85.5846 139.123 82.3677 140.298 79.194 141.609C74.9337 143.266 71.0376 144.657 67.5057 145.783C64.6979 136.504 63.5635 126.841 64.1398 117.381C68.0299 116.441 72.3709 115.506 77.3045 114.083ZM55.2845 145.938C55.6308 147.024 55.8846 148.29 56.2309 149.376C49.9389 151.232 45.598 152.167 42.708 152.49C45.6219 150.364 50.0733 147.898 55.2845 145.938ZM71.4689 156.34C77.5385 154.255 84.6082 151.553 92.5855 148.412C94.8052 154.438 97.5682 160.29 100.516 165.784C98.1085 167.149 95.7932 168.336 93.5213 169.659C89.8416 171.729 86.7053 173.627 83.9765 175.394C78.8669 169.691 74.7574 163.371 71.4689 156.34ZM77.1425 194.329C78.2845 193.217 79.9698 191.932 82.0194 190.381C83.4897 191.708 84.9168 192.899 86.3439 194.09C82.5523 194.401 79.304 194.538 77.1425 194.329Z" fill="url(#paint0_linear_16_2)"/>
<defs>
<linearGradient id="paint0_linear_16_2" x1="-6.89068" y1="74.3383" x2="257.044" y2="236.863" gradientUnits="userSpaceOnUse">
<stop stop-color="#FF6600"/>
<stop offset="1" stop-color="#ED205E"/>
</linearGradient>
</defs>
</svg>
